<svg xmlns="http://www.w3.org/2000/svg" width="774.6021728515625" height="277.702880859375" viewBox="-441.3282775878906 -127.12741088867188 774.6021728515625 277.702880859375"><title>Neo4j Graph Visualization</title><desc>Created using Neo4j (http://www.neo4j.com/)</desc><g class="layer relationships"><g class="relationship" transform="translate(-182.56018514417804 39.60953972376319) rotate(194.50056037429897)"><path class="b-outline" fill="#A5ABB6" stroke="none" d="M 25 0.5 L 82.335161981384 0.5 L 82.335161981384 -0.5 L 25 -0.5 Z M 143.60182839373752 0.5 L 200.93699037512152 0.5 L 200.93699037512152 3.5 L 207.93699037512152 0 L 200.93699037512152 -3.5 L 200.93699037512152 -0.5 L 143.60182839373752 -0.5 Z"/><text text-anchor="middle" pointer-events="none" font-size="8px" fill="#000000" x="112.96849518756076" y="3" transform="rotate(180 112.96849518756076 0)" font-family="Helvetica Neue, Helvetica, Arial, sans-serif">ON_LOCATION</text></g><g class="relationship" transform="translate(-182.56018514417804 39.60953972376319) rotate(389.03244162465785)"><path class="b-outline" fill="#A5ABB6" stroke="none" d="M 25 0.5 L 56.081227720381946 0.5 L 56.081227720381946 -0.5 L 25 -0.5 Z M 105.81456130802843 0.5 L 136.89578902841038 0.5 L 136.89578902841038 3.5 L 143.89578902841038 0 L 136.89578902841038 -3.5 L 136.89578902841038 -0.5 L 105.81456130802843 -0.5 Z"/><text text-anchor="middle" pointer-events="none" font-size="8px" fill="#000000" x="80.94789451420519" y="3" font-family="Helvetica Neue, Helvetica, Arial, sans-serif">HAS_SHAPE</text></g><g class="relationship" transform="translate(-182.56018514417804 39.60953972376319) rotate(309.6973014685194)"><path class="b-outline" fill="#A5ABB6" stroke="none" d="M 25 0.5 L 56.54754351518419 0.5 L 56.54754351518419 -0.5 L 25 -0.5 Z M 115.46421145341661 0.5 L 147.0117549686008 0.5 L 147.0117549686008 3.5 L 154.0117549686008 0 L 147.0117549686008 -3.5 L 147.0117549686008 -0.5 L 115.46421145341661 -0.5 Z"/><text text-anchor="middle" pointer-events="none" font-size="8px" fill="#000000" x="86.0058774843004" y="3" font-family="Helvetica Neue, Helvetica, Arial, sans-serif">OBSERVED_AT</text></g><g class="relationship" transform="translate(-182.56018514417804 39.60953972376319) rotate(522.2114388833326)"><path class="b-outline" fill="#A5ABB6" stroke="none" d="M 25 0.5 L 84.32739216117517 0.5 L 84.32739216117517 -0.5 L 25 -0.5 Z M 149.97739368705408 0.5 L 209.30478584822924 0.5 L 209.30478584822924 3.5 L 216.30478584822924 0 L 209.30478584822924 -3.5 L 209.30478584822924 -0.5 L 149.97739368705408 -0.5 Z"/><text text-anchor="middle" pointer-events="none" font-size="8px" fill="#000000" x="117.15239292411462" y="3" transform="rotate(180 117.15239292411462 0)" font-family="Helvetica Neue, Helvetica, Arial, sans-serif">FOR_DURATION</text></g><g class="relationship" transform="translate(66.72243703755333 9.313215051134577) rotate(375.86030454444005)"><path class="b-outline" fill="#A5ABB6" stroke="none" d="M 25 0.5 L 85.64784789291275 0.5 L 85.64784789291275 -0.5 L 25 -0.5 Z M 146.91451430526627 0.5 L 207.56236219817902 0.5 L 207.56236219817902 3.5 L 214.56236219817902 0 L 207.56236219817902 -3.5 L 207.56236219817902 -0.5 L 146.91451430526627 -0.5 Z"/><text text-anchor="middle" pointer-events="none" font-size="8px" fill="#000000" x="116.28118109908951" y="3" font-family="Helvetica Neue, Helvetica, Arial, sans-serif">ON_LOCATION</text></g><g class="relationship" transform="translate(66.72243703755333 9.313215051134577) rotate(492.14848487954964)"><path class="b-outline" fill="#A5ABB6" stroke="none" d="M 25 0.5 L 47.342132100251845 0.5 L 47.342132100251845 -0.5 L 25 -0.5 Z M 97.07546568789833 0.5 L 119.41759778815018 0.5 L 119.41759778815018 3.5 L 126.41759778815018 0 L 119.41759778815018 -3.5 L 119.41759778815018 -0.5 L 97.07546568789833 -0.5 Z"/><text text-anchor="middle" pointer-events="none" font-size="8px" fill="#000000" x="72.20879889407509" y="3" transform="rotate(180 72.20879889407509 0)" font-family="Helvetica Neue, Helvetica, Arial, sans-serif">HAS_SHAPE</text></g><g class="relationship" transform="translate(66.72243703755333 9.313215051134577) rotate(218.5267193931578)"><path class="b-outline" fill="#A5ABB6" stroke="none" d="M 25 0.5 L 53.28677435715835 0.5 L 53.28677435715835 -0.5 L 25 -0.5 Z M 112.20344229539077 0.5 L 140.49021665254912 0.5 L 140.49021665254912 3.5 L 147.49021665254912 0 L 140.49021665254912 -3.5 L 140.49021665254912 -0.5 L 112.20344229539077 -0.5 Z"/><text text-anchor="middle" pointer-events="none" font-size="8px" fill="#000000" x="82.74510832627456" y="3" transform="rotate(180 82.74510832627456 0)" font-family="Helvetica Neue, Helvetica, Arial, sans-serif">OBSERVED_AT</text></g><g class="relationship" transform="translate(66.72243703755333 9.313215051134577) rotate(343.58011716191527)"><path class="b-outline" fill="#A5ABB6" stroke="none" d="M 25 0.5 L 87.50084491101197 0.5 L 87.50084491101197 -0.5 L 25 -0.5 Z M 153.15084643689087 0.5 L 215.65169134790284 0.5 L 215.65169134790284 3.5 L 222.65169134790284 0 L 215.65169134790284 -3.5 L 215.65169134790284 -0.5 L 153.15084643689087 -0.5 Z"/><text text-anchor="middle" pointer-events="none" font-size="8px" fill="#000000" x="120.32584567395142" y="3" font-family="Helvetica Neue, Helvetica, Arial, sans-serif">FOR_DURATION</text></g></g><g class="layer nodes"><g class="node" aria-label="graph-node0" transform="translate(-182.56018514417804,39.60953972376319)"><circle class="b-outline" cx="0" cy="0" r="25" fill="#F79767" stroke="#f36924" stroke-width="2px"/><text class="caption" text-anchor="middle" pointer-events="none" x="0" y="5" font-size="10px" fill="#FFFFFF" font-family="Helvetica Neue, Helvetica, Arial, sans-serif"> 1</text></g><g class="node" aria-label="graph-node1" transform="translate(66.72243703755333,9.313215051134577)"><circle class="b-outline" cx="0" cy="0" r="25" fill="#F79767" stroke="#f36924" stroke-width="2px"/><text class="caption" text-anchor="middle" pointer-events="none" x="0" y="5" font-size="10px" fill="#FFFFFF" font-family="Helvetica Neue, Helvetica, Arial, sans-serif"> 2</text></g><g class="node" aria-label="graph-node2" transform="translate(-34.886986121978026,121.57547070779466)"><circle class="b-outline" cx="0" cy="0" r="25" fill="#57C7E3" stroke="#23b3d7" stroke-width="2px"/><text class="caption" text-anchor="middle" pointer-events="none" x="0" y="5" font-size="10px" fill="#2A2C34" font-family="Helvetica Neue, Helvetica, Arial, sans-serif"> Rectangle</text></g><g class="node" aria-label="graph-node3" transform="translate(-408.07701230324415,-18.715430513068952)"><circle class="b-outline" cx="0" cy="0" r="25" fill="#C990C0" stroke="#b261a5" stroke-width="2px"/><text class="caption" text-anchor="middle" pointer-events="none" x="0" y="5" font-size="10px" fill="#FFFFFF" font-family="Helvetica Neue, Helvetica, Arial, sans-serif"> omaha</text></g><g class="node" aria-label="graph-node4" transform="translate(297.16487143863526,74.78389405536184)"><circle class="b-outline" cx="0" cy="0" r="25" fill="#C990C0" stroke="#b261a5" stroke-width="2px"/><text class="caption" text-anchor="middle" pointer-events="none" x="0" y="5" font-size="10px" fill="#FFFFFF" font-family="Helvetica Neue, Helvetica, Arial, sans-serif"> deerwo…</text></g><g class="node" aria-label="graph-node5" transform="translate(-68.21972415701543,-98.12741028668796)"><circle class="b-outline" cx="0" cy="0" r="25" fill="#F16667" stroke="#eb2728" stroke-width="2px"/><text class="caption" text-anchor="middle" pointer-events="none" x="0" y="5" font-size="10px" fill="#FFFFFF" font-family="Helvetica Neue, Helvetica, Arial, sans-serif"> "1949-01…</text></g><g class="node" aria-label="graph-node6" transform="translate(-412.3282868287003,113.32940896910856)"><circle class="b-outline" cx="0" cy="0" r="25" fill="#D9C8AE" stroke="#c0a378" stroke-width="2px"/><text class="caption" text-anchor="middle" pointer-events="none" x="0" y="5" font-size="10px" fill="#2A2C34" font-family="Helvetica Neue, Helvetica, Arial, sans-serif"> 2700</text></g><g class="node" aria-label="graph-node7" transform="translate(304.27388654234545,-60.69156382609026)"><circle class="b-outline" cx="0" cy="0" r="25" fill="#D9C8AE" stroke="#c0a378" stroke-width="2px"/><text class="caption" text-anchor="middle" pointer-events="none" x="0" y="5" font-size="10px" fill="#2A2C34" font-family="Helvetica Neue, Helvetica, Arial, sans-serif"> 900</text></g></g></svg>